<svg xmlns="http://www.w3.org/2000/svg" width="26.75" height="16.77" viewBox="0 0 26.75 16.77">
  <path id="behance" d="M10.774,7.514a3.524,3.524,0,0,0,2.248-3.437C13.022.8,10.579,0,7.76,0H0V16.459H7.979c2.991,0,5.8-1.435,5.8-4.779a3.966,3.966,0,0,0-3-4.166ZM3.618,2.81H7.013c1.3,0,2.48.367,2.48,1.881,0,1.4-.915,1.96-2.206,1.96H3.618V2.81ZM7.486,13.663H3.618V9.13H7.561c1.593,0,2.6.664,2.6,2.35,0,1.663-1.2,2.183-2.675,2.183ZM24.135,2.485H17.462V.864h6.674V2.485Zm2.615,8.188c0-3.525-2.062-6.465-5.8-6.465a5.989,5.989,0,0,0-6.1,6.307c0,3.711,2.336,6.256,6.1,6.256a5.313,5.313,0,0,0,5.578-4.008H23.638a2.711,2.711,0,0,1-2.587,1.556,2.7,2.7,0,0,1-2.926-3.033h8.6C26.736,11.09,26.75,10.881,26.75,10.672ZM18.13,9.223a2.558,2.558,0,0,1,2.717-2.545,2.44,2.44,0,0,1,2.61,2.545Z" transform="translate(26.75 16.77) rotate(180)" fill="#d7d7d7"/>
</svg>
