<svg xmlns="http://www.w3.org/2000/svg" width="13.988" height="18.651" viewBox="0 0 13.988 18.651">
  <path id="csv-icon" d="M8.16,4.954V0H.874A.872.872,0,0,0,0,.874v16.9a.872.872,0,0,0,.874.874H13.114a.872.872,0,0,0,.874-.874V5.828H9.034A.877.877,0,0,1,8.16,4.954ZM4.663,10.2a.291.291,0,0,1-.291.291H4.08a.583.583,0,0,0-.583.583V12.24a.583.583,0,0,0,.583.583h.291a.291.291,0,0,1,.291.291V13.7a.291.291,0,0,1-.291.291H4.08A1.748,1.748,0,0,1,2.331,12.24V11.074A1.748,1.748,0,0,1,4.08,9.325h.291a.291.291,0,0,1,.291.291Zm1.613,3.788H5.828a.291.291,0,0,1-.291-.291v-.583a.291.291,0,0,1,.291-.291h.447c.217,0,.379-.127.379-.241a.193.193,0,0,0-.077-.14l-.8-.684a1.352,1.352,0,0,1-.486-1.025A1.482,1.482,0,0,1,6.839,9.326h.446a.291.291,0,0,1,.291.291V10.2a.291.291,0,0,1-.291.291H6.838c-.217,0-.379.127-.379.241a.193.193,0,0,0,.077.14l.8.684a1.352,1.352,0,0,1,.486,1.025,1.481,1.481,0,0,1-1.544,1.407Zm3.05-4.371v.758a3.971,3.971,0,0,0,.583,2.072,3.97,3.97,0,0,0,.583-2.072V9.617a.291.291,0,0,1,.291-.291h.583a.291.291,0,0,1,.291.291v.758A5.01,5.01,0,0,1,10.335,13.8a.583.583,0,0,1-.854,0A5.01,5.01,0,0,1,8.16,10.375V9.617a.291.291,0,0,1,.291-.291h.583A.291.291,0,0,1,9.325,9.617Zm4.408-5.792L10.167.255A.874.874,0,0,0,9.547,0H9.325V4.663h4.663V4.441A.871.871,0,0,0,13.733,3.825Z" fill="#d5d5d5"/>
</svg>
