<svg xmlns="http://www.w3.org/2000/svg" width="13.988" height="18.651" viewBox="0 0 13.988 18.651">
  <path id="docx-icon" d="M8.16,4.954V0H.874A.872.872,0,0,0,0,.874v16.9a.872.872,0,0,0,.874.874H13.114a.872.872,0,0,0,.874-.874V5.828H9.034A.877.877,0,0,1,8.16,4.954Zm2.331,8.6a.438.438,0,0,1-.437.437H3.934a.438.438,0,0,1-.437-.437V13.26a.438.438,0,0,1,.437-.437h6.12a.438.438,0,0,1,.437.437Zm0-2.331a.438.438,0,0,1-.437.437H3.934A.438.438,0,0,1,3.5,11.22v-.291a.438.438,0,0,1,.437-.437h6.12a.438.438,0,0,1,.437.437Zm0-2.623v.291a.438.438,0,0,1-.437.437H3.934A.438.438,0,0,1,3.5,8.888V8.6a.438.438,0,0,1,.437-.437h6.12A.438.438,0,0,1,10.491,8.6Zm3.5-4.156v.222H9.325V0h.222a.874.874,0,0,1,.619.255l3.566,3.57A.871.871,0,0,1,13.988,4.441Z" fill="#d5d5d5"/>
</svg>
