<svg xmlns="http://www.w3.org/2000/svg" width="345.751" height="780.991" viewBox="0 0 345.751 780.991">
  <g id="footer-grass" transform="translate(84.006 -3.093)" opacity="0.143">
    <g id="Scene_Home" data-name="Scene/Home" transform="translate(0.042 0)">
      <g id="Plant" transform="translate(-137 3.093)">
        <g id="Succulents" transform="translate(52.951 0)">
          <path id="Thi-Succs_" data-name="Thi-Succs!" d="M4.549.847c35.93,85.376,97.007,144.7,129.356,233.47,19.183,52.646,27.179,109.886,27.664,168.511.263,31.843-.291,63.706-.44,95.549-.145,31.053-.989,61.907-3.625,92.762-2.649,31.018-5.614,61.666-6.922,92.876-1.018,24.317-1.483,52.6-9.726,74.783-6.555,17.64-23.215,20.224-27.635-1.17-2.456-11.893-2.147-25.171-1.876-37.394.347-15.682,1.26-31.341,1.725-47.02,1.87-62.918-.554-125.847.713-188.79,1.238-61.5,9.143-122.927.4-184.014-7.222-50.445-25.572-93.763-46.658-135.291C47.231,125.165,25.15,86.182,11.44,40.735A219,219,0,0,1,3,.123Q3.957-.322,4.549.847Z" transform="translate(9.203 0)" fill="#e5e5e5"/>
          <path id="Thi-Succs_2" data-name="Thi-Succs!" d="M3.96,43.51c7.115,5.138,11.09,12.653,15.9,20.068C25.839,72.8,32.87,81.12,38.848,90.345c12.466,19.234,23.419,39.649,34.783,59.662,21.575,37.987,37.955,78.474,46.069,122.421,8.41,45.544,10.677,92.554,14.2,138.777,3.742,48.992,7.509,98.34,8,147.52.222,22.034,1.413,45.424-1.232,67.3-1.647,13.621-7.794,25.229-21.651,25.119C89.59,650.915,75.77,618.312,70,591.573,61.5,552.2,59.8,510.379,61.148,470.114c1.625-48.551,10.052-96.373,13.7-144.737,3.862-51.2,1.68-101.494-15.922-149.7-8.893-24.361-19.214-48.139-28.482-72.339C26.5,93.033,23.264,82.45,17.934,72.855,12,62.183,4.644,52.495,0,41Q1.979,42.256,3.96,43.51Z" transform="translate(0 125.774)" fill="#cecece"/>
          <path id="Thi-Succs_3" data-name="Thi-Succs!" d="M137.509,18.106q1.354-1.052,2.708-2.106c-2.6,10.953-7.3,19.85-10.884,29.862-3.226,9-4.862,19.187-7.035,29.025-5.1,23.108-11,45.694-15.82,69C96.938,190,98.742,239.681,105,290.844c5.91,48.33,15.256,96.585,19.71,144.9,3.692,40.072,5.278,81.394,1.757,119.627-2.393,25.965-10.237,56.968-31.61,54.347-10.062-1.234-15.311-13.345-17.426-27.016-3.4-21.96-4.108-45.047-5.432-66.883-2.955-48.738-3.544-97.326-4.127-145.562-.552-45.511-2.073-91.924.968-136.288A417.7,417.7,0,0,1,94.062,117c6.908-18.752,13.491-37.942,21.253-55.814,3.722-8.572,8.27-16.147,11.994-24.713C130.3,29.583,132.686,22.513,137.509,18.106Z" transform="translate(205.533 139.083)" fill="#e5e5e5"/>
          <path id="Thi-Succs_4" data-name="Thi-Succs!" d="M3.849,77.228c3.892-6.535,12.46,15.016,13.764,17.727q-.827-2.022-1.664-4.04c7.726,12.847,14.794,26.221,19.189,40.951,4.349,14.582,8.084,29.46,12.164,44.146,7.656,27.554,17.533,54.327,24.469,82.129,6.759,27.092,8.463,53.726,6.827,81.749-1.7,29.126-2.741,58.7-.757,87.808.947,13.9,5.465,26.853,8.561,40.238s5.542,26.975,9.207,40.207c.841-1.724.948,4.039.947,4.476a27.78,27.78,0,0,1-1.548,9.212c-2.733,8.06-7.846,14.908-15.626,17.131-14.06,4.017-27.114-8.772-31.648-22.277-6.5-19.377-10.088-40.791-13.188-61.157a288.322,288.322,0,0,1-2.67-56.4c1.663-37.337,8.42-74.185,10.248-111.51,1.989-40.636-6.062-78.817-12.8-118.373-3.247-19.06-6.35-37.939-12.669-56.1-2.558-7.353-5.894-13.842-9.391-20.632C5.271,88.657,1.247,81.766,3.849,77.228Z" transform="translate(9.203 233.142)" fill="#e5e5e5"/>
          <path id="Thi-Succs_5" data-name="Thi-Succs!" d="M62.7,170.2c-1.613,46.553-4.393,92.754-10.6,138.817-6.334,47.007-13.61,93.853-19.7,140.9-5.933,45.8-12.152,92.356-11.323,138.793.611,34.2-5.061,92.068,32.928,108.95,38.475,17.1,46.728-55.912,49.254-80.01,4.841-46.234,3.274-92.955.924-139.441-2.412-47.71-6.439-95.178-11.429-142.714-5.543-52.8-9.892-105.841-13.383-158.792-1.727-26.191-2.152-52.339-1.676-78.537.45-24.721-.489-49.7-9.278-73.17-.461.334-.918.668-1.379,1" transform="translate(64.421 76.692)" fill="#adadad"/>
          <path id="Thi-Succs_6" data-name="Thi-Succs!" d="M117.149,115.224c-6.919,10.08-13.894,20.062-20.429,30.739-11.692,19.1-22.265,40.349-25.445,67.664-6.656,57.165-1.316,118.906-.027,177.821.264,12.039-1.259,23.715,3.486,35.173,4.3,10.39,12.346,18.308,20.014,18.265,16.414-.094,13.91-40.289,13.937-57.981.05-31.009-3.428-62.332-3.128-93.312.3-30.692,2.165-61.469,6.615-90.619a522.1,522.1,0,0,1,19.81-84.275c1.208-3.669,9.88-32.021,1.687-27.135" transform="translate(208.601 279.157)" fill="#cecece"/>
          <path id="Thi-Succs_7" data-name="Thi-Succs!" d="M106.014,22c-10.792,0-10.726,53.8-11.05,60.709-1.172,24.937-.9,49.881-1.639,74.823C91.7,211.963,89.708,266.871,81.532,320.673c-4.4,28.963-9.505,57.8-15,86.542-5.505,28.827-12.895,57.618-16.517,86.81-3.477,28.063-1.512,56.678-1.035,84.879.477,28.371,1.334,56.8,5.051,84.922.917,6.942,1.992,13.859,3.143,20.759.959,5.749.4,12.88,2.022,18.344,2.6,8.752,13.746,11.615,21.251,10.248,20.308-3.708,33.28-29.207,40.217-47.838,8.859-23.79,13.56-49.594,18.2-74.665a652.576,652.576,0,0,0,9.781-86.157c2.937-58.769-.832-117.6-5.042-176.183-2.342-32.58-5.047-65.016-9.185-97.393-4.122-32.239-9.41-64.335-12.853-96.67-2.5-23.5-4.967-47.027-6.587-70.615C114.593,58.034,114.267,22,106.014,22" transform="translate(147.248 67.489)" fill="#adadad"/>
          <path id="Thi-Succs_8" data-name="Thi-Succs!" d="M141.586,480.548c-1.759-56.484-24.464-304.586-29.63-372.889C110.665,90.563,98.228,19.381,96.614,0c-4.374,5.478-4,90.747-3.952,110.34.051,19.381-2.353,38.44-3.59,57.717-1.26,19.669-30.339,273.694-34.112,292.594-7.507,37.6-12.532,76.184-16.407,114.628-3.775,37.471-9.644,77-4.593,114.67a115.138,115.138,0,0,0,5.99,25.17c3.232,8.607,5.447,16.566,8.042,25.573,4.175,14.507,11.728,27.239,23.333,33.228C95.119,786.2,107.9,758.4,114.372,734.2a647.659,647.659,0,0,0,20.1-118.523c3.444-44.909,8.527-89.91,7.118-135.128" transform="translate(98.165 0)" fill="#cecece"/>
        </g>
      </g>
    </g>
  </g>
</svg>
