<svg xmlns="http://www.w3.org/2000/svg" width="18.944" height="18.47" viewBox="0 0 18.944 18.47">
  <path id="github" d="M6.336,14.872c0,.076-.088.137-.2.137-.126.011-.214-.05-.214-.137s.088-.137.2-.137S6.336,14.785,6.336,14.872ZM5.148,14.7c-.027.076.05.164.164.187a.179.179,0,0,0,.237-.076c.023-.076-.05-.164-.164-.2A.2.2,0,0,0,5.148,14.7Zm1.688-.065c-.111.027-.187.1-.176.187s.111.126.225.1.187-.1.176-.176S6.947,14.624,6.837,14.636ZM9.35,0A9.158,9.158,0,0,0,0,9.319a9.575,9.575,0,0,0,6.474,9.136c.489.088.661-.214.661-.462s-.011-1.543-.011-2.345c0,0-2.674.573-3.235-1.138,0,0-.435-1.111-1.062-1.4,0,0-.875-.6.061-.588a2.016,2.016,0,0,1,1.474.985,2.019,2.019,0,0,0,2.784.8,2.123,2.123,0,0,1,.611-1.287c-2.135-.237-4.289-.546-4.289-4.22a2.9,2.9,0,0,1,.9-2.25,3.609,3.609,0,0,1,.1-2.593C5.267,3.709,7.1,4.988,7.1,4.988a9.023,9.023,0,0,1,4.8,0S13.738,3.7,14.536,3.957a3.607,3.607,0,0,1,.1,2.593,2.969,2.969,0,0,1,.985,2.25c0,3.686-2.25,3.98-4.385,4.22a2.259,2.259,0,0,1,.649,1.772c0,1.287-.011,2.88-.011,3.193,0,.248.176.55.661.462a9.487,9.487,0,0,0,6.409-9.128A9.365,9.365,0,0,0,9.35,0ZM3.712,13.173c-.05.038-.038.126.027.2s.149.088.2.038.038-.126-.027-.2S3.762,13.123,3.712,13.173ZM3.3,12.863c-.027.05.011.111.088.149a.114.114,0,0,0,.164-.027c.027-.05-.011-.111-.088-.149C3.388,12.814,3.327,12.825,3.3,12.863Zm1.237,1.36c-.061.05-.038.164.05.237.088.088.2.1.248.038s.027-.164-.05-.237C4.7,14.173,4.587,14.162,4.537,14.223ZM4.1,13.662c-.061.038-.061.137,0,.225s.164.126.214.088a.174.174,0,0,0,0-.237C4.262,13.65,4.163,13.612,4.1,13.662Z" transform="translate(18.944 18.47) rotate(180)" fill="#d7d7d7"/>
</svg>
