<svg xmlns="http://www.w3.org/2000/svg" width="491.897" height="1010.559" viewBox="0 0 491.897 1010.559">
  <g id="Group_89" data-name="Group 89" transform="translate(-1434.228 -69.686)">
    <path id="Subtraction_12" data-name="Subtraction 12" d="M125.176,672.045H30.168A637.84,637.84,0,0,1,3.317,542.659a651.222,651.222,0,0,1,0-131.293A641.058,641.058,0,0,1,188.054,23.01c7.827-7.827,15.983-15.569,24.24-23.01V130.082c-9.925,12.277-19.419,25.106-28.218,38.131a552.74,552.74,0,0,0-58.9,503.833Z" transform="translate(1713.831 408.2)" fill="#fff" opacity="0.052"/>
    <path id="Subtraction_15" data-name="Subtraction 15" d="M136.975,835.847h0l-112.1,0c-3.411-13.082-6.5-26.387-9.2-39.547A773.586,773.586,0,0,1,3.983,719.7a783.129,783.129,0,0,1,0-157.764A772.616,772.616,0,0,1,340.148,1.072c.531-.359,1.059-.714,1.591-1.072V135.092c-13.626,11.59-26.921,23.851-39.515,36.444A664.75,664.75,0,0,0,160,382.488a660.176,660.176,0,0,0-38.67,124.575,670.135,670.135,0,0,0,0,267.5c4.208,20.557,9.472,41.175,15.647,61.281Z" transform="translate(1584.385 244.399)" fill="#fff" opacity="0.052"/>
    <path id="Subtraction_18" data-name="Subtraction 18" d="M153.008,1010.559H20.675c-.685-3.183-1.341-6.307-1.95-9.287A922.85,922.85,0,0,1,4.761,909.76a935.04,935.04,0,0,1,0-188.47A923.143,923.143,0,0,1,491.9,0V149.173c-4.495,2.9-9.04,5.907-13.513,8.928a795.147,795.147,0,0,0-287.245,348.82,788.689,788.689,0,0,0-46.2,148.823,800.468,800.468,0,0,0,0,319.564c2.4,11.741,5.115,23.6,8.065,35.249Z" transform="translate(1434.228 69.686)" fill="#fff" opacity="0.052"/>
  </g>
</svg>
