<svg xmlns="http://www.w3.org/2000/svg" width="18.446" height="18.442" viewBox="0 0 18.446 18.442">
  <path id="instagram" d="M9.225,4.493a4.728,4.728,0,1,0,4.728,4.728A4.721,4.721,0,0,0,9.225,4.493Zm0,7.8A3.074,3.074,0,1,1,12.3,9.221,3.08,3.08,0,0,1,9.225,12.3Zm6.025-8a1.1,1.1,0,1,1-1.1-1.1A1.1,1.1,0,0,1,15.25,4.3Zm3.132,1.119a5.458,5.458,0,0,0-1.49-3.864A5.494,5.494,0,0,0,13.028.065C11.5-.022,6.941-.022,5.419.065A5.486,5.486,0,0,0,1.555,1.55,5.476,5.476,0,0,0,.065,5.415c-.086,1.523-.086,6.086,0,7.609a5.458,5.458,0,0,0,1.49,3.864,5.5,5.5,0,0,0,3.864,1.49c1.523.086,6.086.086,7.609,0a5.458,5.458,0,0,0,3.864-1.49,5.494,5.494,0,0,0,1.49-3.864c.086-1.523.086-6.082,0-7.6Zm-1.967,9.239a3.112,3.112,0,0,1-1.753,1.753c-1.214.481-4.095.37-5.436.37S5,16.888,3.789,16.41a3.112,3.112,0,0,1-1.753-1.753c-.481-1.214-.37-4.095-.37-5.436s-.107-4.226.37-5.436A3.112,3.112,0,0,1,3.789,2.032C5,1.55,7.884,1.662,9.225,1.662s4.226-.107,5.436.37a3.112,3.112,0,0,1,1.753,1.753c.481,1.214.37,4.095.37,5.436S16.9,13.447,16.414,14.657Z" transform="translate(18.446 18.442) rotate(180)" fill="#d7d7d7"/>
</svg>
