<svg xmlns="http://www.w3.org/2000/svg" width="13.988" height="18.651" viewBox="0 0 13.988 18.651">
  <path id="zip-icon" d="M13.733,3.825,10.167.255A.874.874,0,0,0,9.547,0H9.325V4.663h4.663V4.441A.871.871,0,0,0,13.733,3.825ZM4.677,12.24a1.1,1.1,0,0,0-1.18.984,1.1,1.1,0,0,0,1.184.984,1.1,1.1,0,0,0,1.18-.984A1.1,1.1,0,0,0,4.677,12.24ZM8.16,4.954V0H5.843V1.166H4.677V0H.874A.872.872,0,0,0,0,.874v16.9a.872.872,0,0,0,.874.874H13.114a.872.872,0,0,0,.874-.874V5.828H9.034A.877.877,0,0,1,8.16,4.954ZM3.493,1.166H4.659V2.331H3.493ZM4.67,15.154A1.91,1.91,0,0,1,2.8,12.863l.714-3.537V8.16H4.677V6.994H3.512V5.828H4.677V4.663H3.512V3.5H4.677V2.331H5.843V3.5H4.677V4.663H5.843V5.828H4.677V6.994H5.843V8.16H4.677V9.325h.805a.44.44,0,0,1,.43.353l.63,3.195A1.91,1.91,0,0,1,4.67,15.154Z" fill="#d5d5d5"/>
</svg>
